<svg enable-background="new 0 0 1000 1000" viewBox="0 0 1000 1000" xmlns="http://www.w3.org/2000/svg"><path fill="000000" d="m500 10c-270.6 0-490 219.4-490 490s219.4 490 490 490 490-219.4 490-490-219.4-490-490-490zm-412.4 623.3c-.3 1.9-1.7 3.3-3.4 3.3-1.8 0-3.2-1.4-3.4-3.3l-6.2-46.4 6.2-47.2c.2-2 1.6-3.3 3.4-3.3 1.7 0 3.1 1.4 3.4 3.3l7.4 47.3zm31.6 28.3c-.3 2-1.8 3.4-3.5 3.4-1.8 0-3.3-1.4-3.5-3.4l-8.4-74.7 8.4-76.4c.2-2 1.7-3.5 3.5-3.5s3.2 1.4 3.5 3.5l9.5 76.4zm34.1 12.6c-.3 2.4-2.1 4.2-4.3 4.2s-4-1.7-4.3-4.2l-7.9-87.3s7.9-90.7 7.9-90.7c.2-2.4 2-4.2 4.3-4.2 2.2 0 4 1.8 4.3 4.2l9 90.7zm34.5 2.8c-.2 2.8-2.4 4.9-5 4.9s-4.8-2.1-5-4.9l-7.5-90.1 7.5-93.2c.2-2.8 2.4-4.9 5-4.9s4.7 2.1 5 4.9l8.5 93.2zm34.7.7c-.2 3.2-2.7 5.6-5.7 5.6-3.1 0-5.5-2.4-5.7-5.6l-7.1-90.9 7.1-86.4c.2-3.2 2.7-5.6 5.7-5.6s5.5 2.4 5.7 5.6l8 86.5zm35 .1c-.2 3.5-3 6.3-6.4 6.3-3.5 0-6.3-2.8-6.5-6.4l-6.6-90.9 6.6-140.6c.2-3.6 3-6.4 6.5-6.4 3.4 0 6.2 2.8 6.4 6.4l7.5 140.6zm34.7-.1c-.2 3.9-3.3 7-7.2 7s-7-3.1-7.2-7.1l-6.2-90.3s6.2-172.7 6.2-172.7c.2-4 3.3-7.1 7.2-7.1 3.8 0 7 3.1 7.2 7.1l7 172.7zm36-1.4c-.2 4.3-3.6 7.8-7.9 7.8s-7.7-3.4-7.9-7.8l-5.8-89.4s5.8-187.1 5.8-187.2c.2-4.4 3.6-7.8 7.9-7.8 4.2 0 7.7 3.4 7.9 7.8l6.5 187.2zm35.8-.6c-.1 4.8-3.9 8.5-8.6 8.5s-8.5-3.8-8.6-8.5l-5.4-88.8 5.4-193.5c.2-4.8 3.9-8.6 8.6-8.6s8.5 3.8 8.6 8.6l6 193.5zm36.1-.8c-.1 5.1-4.2 9.2-9.3 9.2s-9.2-4.1-9.3-9.3l-4.9-88 4.9-188.5c.1-5.2 4.2-9.3 9.4-9.3 5.1 0 9.2 4.1 9.3 9.3l5.6 188.5zm36.3-.5c-.1 5.6-4.5 10-10.1 10-5.5 0-10-4.4-10.1-10l-4.5-87.4 4.5-181.7c.1-5.6 4.6-10 10.1-10s10 4.4 10.1 10l5 181.7zm37.1-9.2-.5 8.6c0 3-1.3 5.6-3.3 7.6-2 1.9-4.6 3.2-7.5 3.2-3.3 0-6.3-1.5-8.3-3.9-1.5-1.8-2.4-4-2.5-6.4 0-.1 0-.2 0-.4 0 0-4.1-86.8-4.1-86.9l4-214.1v-2c0-3.8 2-7.1 5-9 1.7-1.1 3.7-1.8 5.8-1.8 2.2 0 4.3.7 6 1.8 2.9 1.9 4.8 5.2 4.8 8.9l4.5 216.2zm36 7.4c-.1 6.2-5.3 11.4-11.5 11.4-6.3 0-11.5-5.2-11.5-11.4l-2.3-42.2-2.4-43.4 4.7-234.6v-1.2c0-3.6 1.7-6.8 4.3-8.9 2-1.6 4.5-2.6 7.3-2.6 2.1 0 4.2.6 5.9 1.7 3.3 2 5.6 5.7 5.7 9.8l5.1 235.8zm311.3 11.6s-289.8 0-290.1 0c-6.3-.6-11.2-5.6-11.3-12v-332.2c.1-6.1 2.2-9.2 10.1-12.3 20.3-7.9 43.3-12.5 66.9-12.5 96.5 0 175.6 74 183.9 168.3 12.5-5.2 26.1-8.1 40.5-8.1 57.8 0 104.7 46.9 104.7 104.7-.1 57.8-46.9 104.1-104.7 104.1z"/></svg>
